<mxfile host="65bd71144e">
    <diagram id="NXZYRI2cLS-5SG9tABwp" name="Page-1">
        <mxGraphModel dx="556" dy="492" grid="1" gridSize="10" guides="1" tooltips="1" connect="1" arrows="1" fold="1" page="1" pageScale="1" pageWidth="827" pageHeight="1169" math="0" shadow="0">
            <root>
                <mxCell id="0"/>
                <mxCell id="1" parent="0"/>
                <mxCell id="2" value="Admin" style="shape=umlActor;verticalLabelPosition=bottom;verticalAlign=top;html=1;outlineConnect=0;" parent="1" vertex="1">
                    <mxGeometry x="40" y="220" width="30" height="60" as="geometry"/>
                </mxCell>
                <mxCell id="3" value="Generar expensas" style="ellipse;whiteSpace=wrap;html=1;" parent="1" vertex="1">
                    <mxGeometry x="160" y="40" width="120" height="80" as="geometry"/>
                </mxCell>
                <mxCell id="4" value="Registrar pago de expensas" style="ellipse;whiteSpace=wrap;html=1;" parent="1" vertex="1">
                    <mxGeometry x="160" y="140" width="120" height="80" as="geometry"/>
                </mxCell>
                <mxCell id="5" value="Ver detalle de departamento" style="ellipse;whiteSpace=wrap;html=1;" parent="1" vertex="1">
                    <mxGeometry x="160" y="240" width="120" height="80" as="geometry"/>
                </mxCell>
                <mxCell id="6" value="Listar departamentos" style="ellipse;whiteSpace=wrap;html=1;fillColor=#60a917;fontColor=#ffffff;strokeColor=#2D7600;" parent="1" vertex="1">
                    <mxGeometry x="160" y="340" width="120" height="80" as="geometry"/>
                </mxCell>
                <mxCell id="7" value="Agregar nuevo departamento" style="ellipse;whiteSpace=wrap;html=1;" parent="1" vertex="1">
                    <mxGeometry x="160" y="440" width="120" height="80" as="geometry"/>
                </mxCell>
                <mxCell id="8" value="Modificar datos de un departamento" style="ellipse;whiteSpace=wrap;html=1;" parent="1" vertex="1">
                    <mxGeometry x="320" y="40" width="120" height="80" as="geometry"/>
                </mxCell>
                <mxCell id="9" value="Obtener balance" style="ellipse;whiteSpace=wrap;html=1;" parent="1" vertex="1">
                    <mxGeometry x="320" y="140" width="120" height="80" as="geometry"/>
                </mxCell>
                <mxCell id="10" value="Registrar pago de servicio o compra" style="ellipse;whiteSpace=wrap;html=1;" parent="1" vertex="1">
                    <mxGeometry x="320" y="240" width="120" height="80" as="geometry"/>
                </mxCell>
                <mxCell id="11" value="Registrar ingreso de dinero" style="ellipse;whiteSpace=wrap;html=1;" parent="1" vertex="1">
                    <mxGeometry x="320" y="340" width="120" height="80" as="geometry"/>
                </mxCell>
                <mxCell id="12" value="Imprimir comprobante de expensas" style="ellipse;whiteSpace=wrap;html=1;" parent="1" vertex="1">
                    <mxGeometry x="320" y="440" width="120" height="80" as="geometry"/>
                </mxCell>
                <mxCell id="13" value="Guardar contacto" style="ellipse;whiteSpace=wrap;html=1;" parent="1" vertex="1">
                    <mxGeometry x="480" y="40" width="120" height="80" as="geometry"/>
                </mxCell>
            </root>
        </mxGraphModel>
    </diagram>
</mxfile>